<?xml version="1.0" standalone="no"?>
<!DOCTYPE svg PUBLIC "-//W3C//DTD SVG 20010904//EN"
 "http://www.w3.org/TR/2001/REC-SVG-20010904/DTD/svg10.dtd">
<svg version="1.0" xmlns="http://www.w3.org/2000/svg"
 width="800.000000pt" height="800.000000pt" viewBox="0 0 800.000000 800.000000"
 preserveAspectRatio="xMidYMid meet">

<g transform="translate(0.000000,800.000000) scale(0.100000,-0.100000)"
fill="#000000" stroke="none">
<path d="M3526 7465 l-406 -534 0 -100 0 -100 158 91 c86 50 237 138 335 194
l177 103 0 -1312 0 -1312 -925 925 c-508 508 -921 927 -917 931 4 3 165 48
357 99 193 51 358 96 368 99 15 6 5 19 -55 77 l-73 70 -355 48 c-195 26 -492
67 -660 90 l-305 43 -51 -49 c-41 -39 -50 -54 -47 -76 3 -15 44 -314 92 -665
l88 -639 70 -69 70 -70 98 370 c54 204 101 371 104 371 3 0 420 -414 926 -920
l920 -920 -1303 0 c-716 0 -1302 3 -1302 8 0 4 85 153 188 332 l188 325 -98 3
-97 3 -536 -406 -535 -406 0 -68 0 -67 537 -407 536 -407 99 0 100 0 -20 33
c-50 82 -353 609 -358 622 -5 13 147 15 1297 15 l1304 0 -920 -920 c-506 -506
-923 -916 -926 -912 -4 4 -51 169 -103 367 -53 197 -98 360 -99 362 -2 1 -34
-29 -72 -67 l-69 -69 -92 -663 -91 -663 48 -50 48 -49 668 92 667 91 68 68
c45 44 64 70 55 74 -6 3 -169 48 -362 99 -192 51 -353 95 -357 99 -4 4 406
420 912 926 l920 920 0 -1303 c0 -716 -2 -1302 -5 -1302 -3 0 -154 85 -335
190 l-330 189 0 -98 0 -98 407 -537 407 -537 67 3 67 3 406 535 406 535 0 98
0 99 -32 -20 c-76 -46 -615 -351 -631 -357 -16 -7 -17 62 -17 1301 l0 1309
925 -925 c508 -508 921 -927 917 -931 -4 -4 -162 -48 -352 -99 -190 -51 -353
-96 -363 -99 -14 -5 -5 -19 51 -74 l68 -68 668 -91 667 -92 47 47 46 46 -92
668 -91 667 -68 68 c-37 37 -68 66 -70 65 -1 -2 -47 -166 -101 -365 -55 -199
-102 -366 -106 -369 -4 -4 -422 408 -929 915 l-922 922 1308 0 c719 0 1307 -2
1307 -4 0 -4 -320 -564 -362 -633 l-20 -33 99 0 98 0 535 406 535 406 3 67 3
68 -537 406 -536 407 -98 0 -99 0 190 -331 c104 -182 189 -333 189 -335 0 -2
-586 -4 -1302 -4 l-1303 0 920 920 c506 506 922 916 926 912 4 -4 50 -166 102
-360 52 -194 98 -356 101 -360 4 -3 36 23 71 59 l65 64 92 668 92 668 -50 48
-49 48 -663 -92 -663 -92 -70 -69 -69 -69 365 -99 c201 -55 368 -102 370 -106
2 -3 -412 -422 -921 -931 l-924 -924 0 1308 c0 912 3 1307 11 1307 8 0 503
-281 637 -362 l32 -20 0 99 0 100 -407 536 -406 537 -68 0 -68 0 -405 -535z"/>
</g>
</svg>
